<?xml version="1.0" standalone="no"?>
<!DOCTYPE svg PUBLIC "-//W3C//DTD SVG 20010904//EN"
 "http://www.w3.org/TR/2001/REC-SVG-20010904/DTD/svg10.dtd">
<svg version="1.0" xmlns="http://www.w3.org/2000/svg"
 width="700.000000pt" height="700.000000pt" viewBox="0 0 700.000000 700.000000"
 preserveAspectRatio="xMidYMid meet">
<metadata>
Created by potrace 1.14, written by Peter Selinger 2001-2017
</metadata>
<g transform="translate(0.000000,700.000000) scale(0.100000,-0.100000)"
fill="#000000" stroke="none">
<path d="M3675 6323 c-288 -39 -553 -228 -683 -488 -73 -146 -94 -256 -94
-512 -1 -179 -3 -203 -17 -204 -9 0 -195 -1 -414 -1 -426 -1 -417 0 -422 -52
-3 -23 -9 -119 -20 -326 -3 -52 -7 -122 -10 -155 -2 -33 -7 -121 -11 -195 -3
-74 -8 -151 -9 -170 -1 -19 -6 -96 -10 -170 -4 -74 -8 -153 -10 -175 -11 -127
-8 -168 10 -182 25 -17 39 -17 57 5 12 12 18 51 23 147 3 72 8 157 10 190 2
33 7 114 10 180 8 176 15 302 20 370 2 33 7 123 11 200 4 77 8 156 9 175 2 19
3 42 4 50 1 14 47 16 381 16 l380 -1 0 -80 c0 -86 8 -105 47 -105 31 0 40 24
39 110 l-1 76 800 -1 800 0 1 -66 c1 -92 9 -119 37 -119 42 0 48 13 50 101 l2
84 373 0 c206 1 375 -2 377 -6 3 -3 7 -44 10 -90 3 -46 8 -115 11 -154 2 -38
6 -95 9 -125 2 -30 7 -98 10 -150 3 -52 8 -115 10 -140 3 -25 7 -81 10 -125 9
-145 15 -239 20 -295 2 -30 7 -93 10 -140 3 -47 8 -107 10 -135 2 -27 7 -95
10 -150 4 -55 8 -118 10 -140 2 -22 6 -85 10 -140 3 -55 8 -120 10 -145 2 -25
6 -81 9 -125 4 -44 9 -114 11 -155 3 -41 8 -102 10 -135 3 -33 7 -98 10 -145
3 -47 7 -110 10 -140 2 -30 7 -91 10 -135 3 -44 7 -107 10 -140 3 -33 7 -96
10 -140 3 -44 7 -107 10 -140 2 -33 7 -100 10 -150 4 -49 8 -115 11 -145 7
-91 13 -180 19 -275 3 -49 8 -109 11 -132 l5 -42 -831 0 c-621 0 -835 -3 -846
-12 -18 -15 -18 -43 0 -58 11 -9 214 -12 818 -12 1010 0 941 0 957 10 18 12
17 121 -4 341 -2 19 -6 80 -10 135 -3 55 -8 118 -10 140 -2 22 -7 81 -10 130
-3 50 -7 113 -10 140 -2 28 -7 86 -10 130 -8 119 -15 224 -20 280 -4 57 -12
164 -20 280 -3 44 -8 100 -10 125 -2 25 -7 88 -10 140 -3 52 -8 115 -10 140
-2 25 -6 86 -9 135 -12 163 -25 343 -31 405 -2 25 -7 92 -10 150 -3 58 -8 116
-10 130 -2 14 -6 72 -10 130 -4 58 -8 121 -10 140 -2 19 -6 80 -10 135 -3 55
-8 123 -10 150 -2 28 -7 86 -10 130 -3 44 -8 107 -10 140 -3 33 -7 94 -10 135
-3 41 -7 104 -10 140 -3 36 -7 89 -10 119 -2 29 -9 59 -15 65 -8 8 -133 11
-416 12 -222 0 -407 4 -411 8 -4 3 -8 100 -9 214 -1 114 -5 221 -8 238 -23
144 -95 305 -186 417 -134 167 -323 281 -535 322 -38 8 -231 13 -270 8z m235
-97 c25 -5 53 -10 62 -12 40 -7 147 -50 203 -82 221 -124 372 -350 402 -602 5
-36 8 -144 8 -240 l0 -175 -802 -3 -801 -2 2 227 c2 126 6 235 9 243 4 8 8 26
11 40 14 79 67 195 131 285 121 169 325 296 517 320 29 4 54 8 55 9 6 5 161
-1 203 -8z"/>
<path d="M4606 4551 c-13 -15 -16 -50 -16 -209 0 -175 -11 -293 -28 -292 -4 1
-41 59 -82 131 -52 90 -82 131 -97 135 -24 7 -636 -208 -665 -233 -9 -8 -26
-40 -36 -72 -11 -31 -88 -243 -171 -471 -219 -599 -232 -633 -241 -655 -33
-78 -49 -138 -41 -153 6 -11 124 -60 318 -131 169 -63 337 -125 373 -138 161
-61 283 -103 301 -103 24 0 35 23 97 195 28 77 132 363 232 635 100 272 182
504 182 515 0 11 -28 69 -62 130 -55 99 -60 112 -49 135 47 102 51 129 54 345
1 116 -1 217 -6 226 -12 25 -46 29 -63 10z m-173 -473 l77 -133 -33 -31 c-18
-17 -42 -36 -54 -42 -18 -10 -23 -8 -37 13 -29 44 -70 75 -120 90 -66 20 -112
19 -161 -4 -171 -79 -189 -308 -32 -405 56 -34 135 -45 192 -26 76 25 154 122
155 192 0 21 11 34 48 59 26 18 57 41 69 51 21 20 21 20 34 -4 6 -12 26 -50
44 -83 l33 -60 -115 -310 c-63 -170 -120 -328 -127 -350 -8 -22 -42 -116 -76
-210 -34 -93 -78 -213 -97 -265 -18 -52 -39 -97 -45 -101 -7 -4 -20 -3 -30 2
-13 7 -653 243 -815 300 -7 3 2 39 28 109 21 58 124 336 228 619 l188 514 274
103 c151 56 279 103 285 103 5 1 45 -59 87 -131z m-178 -188 c36 -23 51 -48
32 -55 -14 -6 -69 -12 -114 -14 -54 -2 -68 -66 -20 -88 22 -10 100 -9 144 2
23 5 23 5 9 -22 -37 -73 -136 -102 -201 -59 -86 56 -83 194 3 241 39 21 109
19 147 -5z"/>
<path d="M1366 3541 c-13 -15 -17 -54 -31 -296 -3 -44 -7 -120 -10 -170 -3
-49 -8 -128 -10 -175 -5 -97 -13 -231 -20 -340 -3 -41 -7 -120 -10 -175 -7
-119 -13 -220 -20 -335 -11 -180 -15 -239 -20 -345 -3 -60 -7 -141 -10 -180
-6 -98 -14 -223 -20 -340 -3 -55 -8 -131 -10 -170 -17 -289 -17 -281 0 -295
14 -12 224 -14 1312 -14 l1296 0 18 23 c10 13 17 26 15 30 -4 5 -8 60 -21 251
-1 19 -5 85 -9 145 -4 61 -9 130 -11 155 -2 25 -7 86 -10 135 -3 50 -8 108
-10 130 -2 22 -7 90 -10 150 -4 61 -9 126 -10 145 -2 19 -7 82 -10 140 -8 115
-11 135 -20 151 -12 18 -49 27 -69 17 -17 -9 -18 -19 -12 -137 4 -69 9 -148
11 -176 2 -27 7 -90 10 -140 8 -139 15 -245 20 -300 2 -27 7 -95 10 -150 3
-55 8 -122 10 -150 2 -27 7 -93 10 -145 3 -52 8 -114 10 -137 l5 -43 -83 0
c-108 -1 -2096 -1 -2255 0 l-122 0 5 73 c3 39 7 115 10 167 3 52 7 129 10 170
6 100 13 221 20 355 3 61 8 135 10 165 2 30 7 107 10 170 8 157 17 324 30 525
2 39 7 117 10 175 3 58 8 134 10 170 2 36 7 117 10 180 3 63 8 138 10 165 2
28 7 111 11 185 3 74 8 142 9 150 2 13 105 16 841 20 461 3 845 9 852 13 6 5
12 19 12 32 0 13 -6 27 -12 32 -7 4 -403 8 -881 8 -773 1 -869 -1 -881 -14z"/>
<path d="M1905 3243 c-21 -21 -21 -391 0 -480 59 -251 277 -423 535 -423 254
1 479 185 530 434 13 61 18 445 7 463 -11 17 -45 22 -62 9 -15 -10 -17 -39
-17 -211 -1 -113 -6 -222 -13 -250 -76 -333 -479 -466 -738 -244 -62 54 -105
117 -133 198 -20 59 -22 87 -23 271 -1 168 -4 207 -17 221 -22 24 -52 30 -69
12z"/>
</g>
</svg>
