<svg xmlns="http://www.w3.org/2000/svg" version="1.1" xmlns:xlink="http://www.w3.org/1999/xlink" width="80px" height="74px">
<g data-element="icon" transform="scale(0.13333338758682764)">
            <path id="color_x5F_3_3_" fill="rgba(255, 255, 255, 1.0)" d="M322.366,389.079l-59.638,36.512c-23.286,14.284-42.339,3.62-42.339-23.699v-92.284    c-47.379,11.644-95.307,29.506-134.918,58.661c-54.624,40.206-119.957,137.08-64.189,202.186    c15.42,18.003,39.523,28.759,63.183,28.759c0.031,0,367.717,0,371.969,0c16.942,0,14.873-19.44,3.714-26.512    C380.285,522.096,340.578,442.887,322.366,389.079z"></path>
            <path id="color_x5F_2_6_" fill="rgba(170, 159, 244, 1.0)" d="M319.054,207.786l105.995,66.298c23.286,14.284,23.286,37.656,0,51.941l-70.399,44.013    c48.552,109.638,140.806,152.606,190.121,173.022C583.999,559.299,600,528.816,600,516.431V83.679    c0-70.153-54.854-71.24-71.852-67.051C412.38,45.159,335.865,149.158,319.054,207.786z"></path>
            <path id="color_x5F_1_9_" fill="#03B19F" d="M17.658,360.508c66.739-64.834,153.159-75.367,202.731-84.84v-77.45    c0-27.318,19.053-37.983,42.339-23.699l24.042,14.228c27.978-83.527,70.677-135.992,113.41-165.876    c9.44-6.601,11.329-23.605-4.961-21.975H84.465c-45.531,0-82.781,37.253-82.781,82.782c0,0,0,271.369,0,274.888    C1.684,370.245,12.961,365.069,17.658,360.508z"></path>
          </g>
          </svg>