<svg width="197" height="206" viewBox="0 0 197 206" fill="none" xmlns="http://www.w3.org/2000/svg">
<path fill-rule="evenodd" clip-rule="evenodd" d="M193.038 111.929C197.725 107.242 197.725 99.6444 193.038 94.9581L178.825 80.7449C178.459 80.379 178.075 80.0416 177.677 79.7328L162.888 64.4849C161.35 62.8993 159.225 62.0202 157.016 62.0558L117.257 62.6971C110.208 62.8108 106.742 71.327 111.708 76.3315L138.885 103.715L76.4852 166.114C71.7989 170.801 71.7989 178.399 76.4852 183.085L90.6984 197.298C95.3847 201.984 102.983 201.984 107.669 197.298L193.038 111.929Z" fill="#1567FF"/>
<path fill-rule="evenodd" clip-rule="evenodd" d="M4.43902 94.5714C-0.247275 99.2577 -0.24728 106.856 4.43901 111.542L18.6522 125.755C19.0181 126.121 19.4018 126.458 19.8005 126.767L34.5898 142.015C36.1277 143.601 38.2527 144.48 40.4613 144.444L80.2198 143.803C87.2696 143.689 90.7357 135.173 85.769 130.169L58.5923 102.785L120.992 40.3857C125.678 35.6994 125.678 28.1015 120.992 23.4152L106.779 9.20202C102.093 4.51573 94.4947 4.51573 89.8084 9.20202L4.43902 94.5714Z" fill="#1567FF"/>
<path d="M77.6675 112.756C76.7795 112.756 75.9035 112.648 75.0395 112.432C74.1995 112.216 73.4315 111.844 72.7355 111.316C72.1355 110.812 71.7035 110.092 71.4395 109.156C71.1995 108.22 71.0795 107.308 71.0795 106.42C71.0795 106.036 71.1035 105.676 71.1515 105.34C71.1995 104.98 71.2475 104.68 71.2955 104.44C71.7035 102.664 72.4475 101.008 73.5275 99.472C74.6315 97.912 76.0355 96.352 77.7395 94.792C77.9315 94.6 78.1235 94.42 78.3155 94.252C78.5075 94.084 78.6995 93.916 78.8915 93.748C79.0115 93.676 79.1315 93.64 79.2515 93.64C79.3715 93.616 79.4795 93.604 79.5755 93.604C79.6955 93.604 79.8035 93.604 79.8995 93.604C79.9955 93.58 80.0675 93.544 80.1155 93.496C80.2355 93.424 80.3075 93.256 80.3315 92.992C80.3795 92.728 80.4755 92.536 80.6195 92.416C81.3155 91.912 82.1315 91.492 83.0675 91.156C84.0035 90.82 84.8675 90.496 85.6595 90.184C86.3315 89.92 87.1475 89.716 88.1075 89.572C89.0915 89.428 90.0395 89.356 90.9515 89.356C91.8875 89.356 92.6555 89.428 93.2555 89.572C93.7835 89.692 94.1315 89.884 94.2995 90.148C94.4915 90.388 94.6115 90.652 94.6595 90.94C94.7075 91.228 94.7675 91.504 94.8395 91.768C94.8635 91.84 94.8755 91.912 94.8755 91.984C94.8995 92.056 94.9115 92.14 94.9115 92.236C94.9115 92.62 94.7915 92.956 94.5515 93.244C94.3355 93.532 94.1075 93.676 93.8675 93.676C93.6035 93.676 93.4115 93.496 93.2915 93.136C93.2435 93.016 93.1595 92.86 93.0395 92.668C92.9435 92.476 92.8715 92.308 92.8235 92.164C92.7035 91.9 92.5235 91.732 92.2835 91.66C92.0435 91.564 91.7315 91.516 91.3475 91.516H91.3115C91.0955 91.516 90.8555 91.492 90.5915 91.444C90.3275 91.396 90.0395 91.372 89.7275 91.372C89.2715 91.372 88.7795 91.42 88.2515 91.516C87.7235 91.612 87.1595 91.792 86.5595 92.056C84.7115 92.872 82.9355 93.772 81.2315 94.756C79.5515 95.716 78.1475 96.832 77.0195 98.104C76.8755 98.296 76.7795 98.428 76.7315 98.5C76.7075 98.572 76.6115 98.716 76.4435 98.932C76.3235 99.076 76.1435 99.28 75.9035 99.544C75.6635 99.808 75.4955 100.012 75.3995 100.156C75.0395 100.66 74.7635 101.212 74.5715 101.812C74.3795 102.388 74.2235 102.952 74.1035 103.504C73.9835 104.056 73.8395 104.512 73.6715 104.872C73.5275 105.184 73.4195 105.508 73.3475 105.844C73.2995 106.156 73.2755 106.48 73.2755 106.816C73.2755 107.392 73.3475 107.944 73.4915 108.472C73.6595 109 73.8395 109.444 74.0315 109.804C74.4155 110.5 75.0035 110.968 75.7955 111.208C76.6115 111.424 77.4275 111.532 78.2435 111.532C78.8195 111.532 79.3475 111.496 79.8275 111.424C80.3315 111.352 80.6915 111.304 80.9075 111.28C81.0755 111.232 81.3755 111.112 81.8075 110.92C82.2395 110.704 82.5395 110.584 82.7075 110.56C82.9235 110.512 83.1875 110.452 83.4995 110.38C83.8115 110.308 84.0875 110.224 84.3275 110.128C85.5035 109.696 86.4515 109.192 87.1715 108.616C87.9155 108.04 88.6475 107.428 89.3675 106.78C89.9915 106.228 90.4955 105.844 90.8795 105.628C91.2875 105.388 91.5755 105.268 91.7435 105.268C91.9115 105.268 91.9955 105.34 91.9955 105.484C91.9955 105.628 91.8875 105.832 91.6715 106.096C91.4795 106.36 91.1795 106.624 90.7715 106.888C89.8595 107.536 88.9355 108.268 87.9995 109.084C87.0635 109.9 86.0315 110.536 84.9035 110.992C84.5915 111.112 84.3035 111.268 84.0395 111.46C83.7755 111.652 83.4755 111.796 83.1395 111.892C82.7555 111.988 82.0475 112.156 81.0155 112.396C79.9835 112.636 78.8675 112.756 77.6675 112.756ZM94.1344 117.976C93.8464 117.976 93.7024 117.736 93.7024 117.256C93.7264 116.992 93.8104 116.476 93.9544 115.708C94.1224 114.964 94.4104 114.172 94.8184 113.332C95.0104 112.948 95.2504 112.48 95.5384 111.928C95.8504 111.352 96.1744 110.764 96.5104 110.164C96.8464 109.54 97.1584 108.988 97.4464 108.508C97.7344 108.004 97.9504 107.632 98.0944 107.392C98.4544 106.84 98.8744 106.204 99.3544 105.484C99.8344 104.74 100.278 104.068 100.686 103.468C100.35 103.132 100.182 102.76 100.182 102.352C100.182 101.8 100.422 101.32 100.902 100.912C101.382 100.48 101.814 100.264 102.198 100.264C102.366 100.264 102.498 100.3 102.594 100.372V100.408C102.594 100.408 102.606 100.444 102.63 100.516C102.678 100.564 102.738 100.612 102.81 100.66C103.05 100.396 103.254 100.156 103.422 99.94C103.614 99.7 103.71 99.58 103.71 99.58C104.022 99.148 104.406 98.656 104.862 98.104C105.318 97.552 105.786 97 106.266 96.448C106.746 95.896 107.154 95.428 107.49 95.044C107.586 94.924 107.706 94.732 107.85 94.468C108.018 94.18 108.186 93.904 108.354 93.64C108.522 93.352 108.666 93.148 108.786 93.028C108.978 92.86 109.194 92.644 109.434 92.38C109.674 92.116 109.902 91.936 110.118 91.84C110.526 91.648 111.006 91.468 111.558 91.3C112.11 91.132 112.59 91.048 112.998 91.048C113.214 91.048 113.394 91.144 113.538 91.336C113.682 91.528 113.79 91.672 113.862 91.768C113.766 92.056 113.598 92.512 113.358 93.136C113.142 93.736 112.842 94.216 112.458 94.576C112.122 94.864 111.702 95.152 111.198 95.44C110.718 95.704 110.382 95.992 110.19 96.304C109.998 96.592 109.674 96.916 109.218 97.276C108.762 97.612 108.318 97.924 107.886 98.212C107.454 98.5 107.154 98.728 106.986 98.896C106.89 99.04 106.674 99.316 106.338 99.724C106.026 100.108 105.678 100.54 105.294 101.02C104.934 101.5 104.61 101.92 104.322 102.28L105.186 103.252C106.29 103.252 107.25 103.18 108.066 103.036C108.882 102.868 109.554 102.772 110.082 102.748C111.45 102.7 112.77 102.4 114.042 101.848C115.338 101.272 116.514 100.588 117.57 99.796C118.626 98.98 119.478 98.2 120.126 97.456C120.774 96.712 121.218 96.064 121.458 95.512C121.698 94.936 121.794 94.132 121.746 93.1C121.698 91.828 120.894 90.856 119.334 90.184C117.774 89.512 115.758 89.116 113.286 88.996C112.71 88.972 111.93 89.02 110.946 89.14C109.962 89.26 108.906 89.464 107.778 89.752C106.674 90.04 105.618 90.424 104.61 90.904C103.602 91.384 102.774 91.96 102.126 92.632C101.502 93.304 101.19 94.084 101.19 94.972C101.19 95.284 101.286 95.512 101.478 95.656C101.67 95.8 101.85 95.908 102.018 95.98C102.21 96.052 102.306 96.136 102.306 96.232C102.306 96.304 102.162 96.436 101.874 96.628C101.682 96.796 101.406 96.94 101.046 97.06C100.686 97.156 100.446 97.204 100.326 97.204C99.7744 97.204 99.2704 97.192 98.8144 97.168C98.3824 97.12 98.0704 96.94 97.8784 96.628V96.592C97.8784 96.016 97.8784 95.632 97.8784 95.44C97.9024 95.248 97.9384 95.128 97.9864 95.08C98.0584 95.032 98.1424 94.96 98.2384 94.864C98.3584 94.744 98.5144 94.504 98.7064 94.144C98.7544 94.048 98.8624 93.904 99.0304 93.712C99.2224 93.496 99.4024 93.292 99.5704 93.1C99.7384 92.908 99.8344 92.8 99.8584 92.776C100.794 91.936 101.874 91.228 103.098 90.652C104.322 90.052 105.57 89.572 106.842 89.212C108.138 88.828 109.362 88.552 110.514 88.384C111.69 88.192 112.71 88.096 113.574 88.096C114.702 88.096 115.902 88.252 117.174 88.564C118.47 88.852 119.682 89.272 120.81 89.824C121.962 90.376 122.898 91.048 123.618 91.84C124.338 92.608 124.698 93.46 124.698 94.396C124.698 95.14 124.41 95.944 123.834 96.808C123.258 97.672 122.298 98.56 120.954 99.472C120.81 99.568 120.654 99.628 120.486 99.652C120.318 99.676 120.174 99.736 120.054 99.832L118.47 100.732C117.918 101.044 117.402 101.32 116.922 101.56C116.442 101.8 115.914 102.04 115.338 102.28C114.786 102.496 114.09 102.772 113.25 103.108C113.082 103.18 112.83 103.276 112.494 103.396C112.158 103.492 111.822 103.6 111.486 103.72C111.15 103.816 110.898 103.9 110.73 103.972C110.586 104.044 110.61 104.08 110.802 104.08H110.838C110.454 104.248 110.07 104.344 109.686 104.368C109.302 104.392 108.882 104.44 108.426 104.512C108.426 104.512 108.21 104.536 107.778 104.584C107.346 104.632 106.902 104.716 106.446 104.836C106.638 105.052 106.806 105.256 106.95 105.448C107.118 105.616 107.202 105.7 107.202 105.7C107.466 106.084 108.006 106.696 108.822 107.536C109.662 108.376 110.55 109.288 111.486 110.272C111.63 110.416 111.702 110.548 111.702 110.668C111.726 110.764 111.762 110.848 111.81 110.92C111.93 110.944 112.062 110.992 112.206 111.064C112.374 111.136 112.482 111.232 112.53 111.352C112.77 111.544 113.154 111.832 113.682 112.216C114.21 112.624 114.762 113.02 115.338 113.404C115.914 113.812 116.382 114.124 116.742 114.34H116.706C117.018 114.46 117.222 114.58 117.318 114.7C117.438 114.82 117.498 114.928 117.498 115.024C117.498 115.144 117.426 115.24 117.282 115.312C117.162 115.384 117.054 115.408 116.958 115.384C116.718 115.384 116.334 115.252 115.806 114.988C115.278 114.724 114.69 114.4 114.042 114.016C113.418 113.632 112.794 113.236 112.17 112.828C111.57 112.42 111.054 112.072 110.622 111.784C110.214 111.496 109.734 111.124 109.182 110.668C108.654 110.188 108.126 109.708 107.598 109.228C107.094 108.724 106.65 108.292 106.266 107.932C105.882 107.548 105.63 107.284 105.51 107.14C105.462 107.044 105.258 106.876 104.898 106.636C104.562 106.372 104.166 106.072 103.71 105.736C103.254 105.376 102.81 105.04 102.378 104.728C101.682 105.64 101.226 106.312 101.01 106.744C100.794 107.176 100.626 107.512 100.506 107.752C100.266 108.064 99.9064 108.388 99.4264 108.724C98.9464 109.06 98.6464 109.36 98.5264 109.624C98.4064 109.888 98.2384 110.2 98.0224 110.56C97.8064 110.92 97.6024 111.268 97.4104 111.604C97.2184 111.916 97.0984 112.168 97.0504 112.36C96.9784 112.576 96.7624 112.948 96.4024 113.476C96.0424 114.004 95.7304 114.76 95.4664 115.744C95.2744 116.56 95.0464 117.136 94.7824 117.472C94.5424 117.808 94.3264 117.976 94.1344 117.976ZM113.97 91.732C113.97 91.876 113.934 91.888 113.862 91.768C113.934 91.528 113.97 91.504 113.97 91.696V91.732Z" fill="#007AFF"/>
</svg>
