<?xml version="1.0" standalone="no"?>
<!DOCTYPE svg PUBLIC "-//W3C//DTD SVG 20010904//EN"
 "http://www.w3.org/TR/2001/REC-SVG-20010904/DTD/svg10.dtd">
<svg version="1.0" xmlns="http://www.w3.org/2000/svg"
 width="640.000000pt" height="640.000000pt" viewBox="0 0 640.000000 640.000000"
 preserveAspectRatio="xMidYMid meet">
<metadata>
Created by potrace 1.14, written by Peter Selinger 2001-2017
</metadata>
<g transform="translate(0.000000,640.000000) scale(0.100000,-0.100000)"
fill="#000000" stroke="none">
<path d="M717 6130 c-120 -28 -239 -80 -337 -150 -67 -46 -185 -178 -234 -258
-40 -67 -98 -209 -111 -272 -15 -72 -17 -336 -17 -1648 0 -1425 1 -1504 17
-1522 10 -11 28 -20 40 -20 34 0 100 40 157 96 107 102 405 324 437 324 5 0
14 6 18 12 4 7 26 22 48 33 22 11 42 22 45 25 22 23 452 210 483 210 7 0 18 5
25 12 7 7 12 9 12 5 0 -4 10 -2 22 4 13 7 36 16 53 20 16 4 62 17 100 29 69
21 206 58 235 64 8 1 26 5 40 9 14 4 36 9 50 11 14 3 70 14 125 26 55 12 114
23 130 25 17 2 41 6 55 9 28 7 73 15 110 21 14 3 41 7 60 11 19 3 40 7 47 8 7
1 15 4 18 7 2 3 5 203 5 445 1 250 5 458 11 484 35 162 151 240 307 207 39 -9
126 -48 130 -59 2 -4 8 -8 13 -8 5 0 62 -32 126 -71 64 -38 119 -67 122 -62 4
4 13 26 20 48 8 22 18 51 24 65 6 14 11 30 12 35 12 49 150 365 207 473 85
161 165 301 179 312 3 3 13 19 22 35 8 17 23 40 34 53 10 12 34 45 53 73 34
49 66 91 133 174 103 127 278 301 388 387 49 38 110 85 141 109 75 57 94 166
37 210 -23 18 -79 19 -1769 18 -1637 -1 -1750 -2 -1823 -19z"/>
<path d="M5670 5989 c-144 -30 -337 -93 -475 -155 -22 -10 -42 -18 -45 -19
-32 -5 -373 -191 -378 -206 -2 -5 -8 -9 -14 -9 -18 0 -217 -143 -363 -262 -92
-75 -305 -284 -391 -384 -98 -113 -111 -130 -170 -209 -88 -117 -164 -230
-164 -242 0 -6 -3 -13 -7 -15 -28 -12 -184 -322 -231 -459 l-31 -86 22 -12
c22 -11 51 -29 71 -44 37 -26 138 -87 146 -87 6 0 10 -4 10 -9 0 -5 8 -11 18
-14 9 -4 59 -33 111 -67 51 -33 95 -60 97 -60 3 0 10 -5 17 -10 23 -20 379
-240 388 -240 5 0 9 -4 9 -10 0 -5 4 -10 10 -10 9 0 72 -39 97 -60 7 -5 15
-10 18 -10 12 0 179 -114 209 -143 18 -18 46 -54 62 -82 25 -43 29 -60 29
-125 0 -64 -5 -83 -28 -122 -15 -26 -42 -62 -60 -81 -34 -35 -149 -117 -166
-117 -5 0 -11 -3 -13 -8 -1 -4 -37 -27 -78 -52 -41 -24 -77 -47 -80 -51 -3 -4
-23 -17 -45 -28 -22 -12 -74 -44 -115 -72 -41 -27 -89 -56 -107 -64 -17 -8
-37 -20 -45 -27 -7 -7 -42 -31 -78 -52 -36 -22 -68 -44 -71 -49 -3 -5 -10 -7
-14 -5 -4 1 -13 -5 -19 -14 -8 -14 2 -43 54 -145 58 -115 175 -320 191 -333 3
-3 14 -20 24 -38 11 -17 23 -32 27 -32 4 0 8 -5 8 -11 0 -15 116 -167 210
-274 66 -76 285 -291 350 -343 36 -29 73 -60 84 -69 10 -8 57 -44 105 -79 47
-35 91 -68 98 -74 7 -5 15 -10 18 -10 3 0 27 -16 54 -35 26 -19 53 -35 60 -35
6 0 11 -4 11 -8 0 -5 19 -19 43 -31 23 -12 65 -35 92 -52 28 -16 73 -41 100
-55 28 -13 57 -29 65 -34 14 -9 180 -87 275 -130 22 -9 60 -26 85 -38 143 -64
266 -86 365 -66 102 21 203 103 252 202 l28 57 0 2420 c0 2317 -1 2423 -18
2500 -56 243 -194 398 -412 464 -74 23 -232 34 -295 20z"/>
<path d="M2322 2849 c-13 -5 -36 -10 -53 -11 -16 -1 -29 -7 -29 -12 0 -5 -2
-7 -5 -4 -3 3 -43 -6 -88 -19 -45 -13 -89 -26 -97 -28 -60 -14 -315 -105 -440
-158 -14 -5 -30 -11 -36 -12 -26 -6 -363 -177 -412 -210 -30 -19 -57 -35 -61
-35 -4 0 -21 -10 -38 -22 -17 -13 -41 -30 -54 -38 -152 -101 -424 -346 -509
-458 -14 -18 -37 -48 -53 -65 -72 -83 -250 -360 -246 -383 0 -4 -3 -10 -8 -13
-28 -19 -134 -292 -160 -411 -24 -114 -30 -179 -27 -300 2 -74 5 -146 8 -160
8 -45 46 -157 72 -214 l25 -56 2267 1 c1758 0 2263 3 2248 12 -21 13 -28 19
-142 122 -135 122 -276 271 -373 395 -28 36 -59 74 -69 86 -9 11 -30 40 -47
65 -16 24 -36 50 -42 57 -7 7 -13 17 -13 21 0 4 -11 21 -25 37 -14 16 -25 34
-25 41 0 6 -4 13 -8 15 -7 3 -51 73 -126 201 -64 110 -209 420 -255 547 -7 19
-17 44 -21 55 -5 11 -16 41 -25 67 l-17 46 -44 -26 c-24 -15 -81 -49 -126 -77
-46 -27 -89 -55 -96 -62 -7 -7 -17 -13 -22 -13 -7 0 -150 -87 -305 -185 -103
-65 -197 -96 -275 -91 -88 6 -168 79 -200 181 -17 56 -19 99 -19 589 -1 291
-2 531 -4 532 -1 1 -12 -2 -25 -7z"/>
</g>
</svg>
